<svg width="24" height="24" viewBox="0 0 24 24" fill="none" xmlns="http://www.w3.org/2000/svg">
<path d="M21 12.83H2.72998C2.53107 12.83 2.3403 12.7509 2.19965 12.6103C2.05899 12.4696 1.97998 12.2789 1.97998 12.08C1.97998 11.881 2.05899 11.6903 2.19965 11.5496C2.3403 11.409 2.53107 11.33 2.72998 11.33H21C21.1989 11.33 21.3897 11.409 21.5303 11.5496C21.671 11.6903 21.75 11.881 21.75 12.08C21.75 12.2789 21.671 12.4696 21.5303 12.6103C21.3897 12.7509 21.1989 12.83 21 12.83Z" fill="currentColor"/>
<path d="M6.73013 16.83C6.53172 16.8277 6.34185 16.7489 6.20013 16.61L2.20013 12.61C2.12937 12.541 2.07313 12.4586 2.03474 12.3676C1.99634 12.2766 1.97656 12.1788 1.97656 12.08C1.97656 11.9812 1.99634 11.8834 2.03474 11.7924C2.07313 11.7013 2.12937 11.6189 2.20013 11.55L6.20013 7.54999C6.26907 7.47923 6.35149 7.42299 6.44252 7.3846C6.53355 7.3462 6.63134 7.32642 6.73013 7.32642C6.82893 7.32642 6.92671 7.3462 7.01774 7.3846C7.10876 7.42299 7.19119 7.47923 7.26013 7.54999C7.40058 7.69061 7.47947 7.88124 7.47947 8.07999C7.47947 8.27874 7.40058 8.46936 7.26013 8.60999L3.79013 12.08L7.26013 15.55C7.40058 15.6906 7.47947 15.8812 7.47947 16.08C7.47947 16.2787 7.40058 16.4694 7.26013 16.61C7.11729 16.7472 6.92813 16.8257 6.73013 16.83Z" fill="currentColor"/>
</svg>
