<svg width="10" height="16" viewBox="0 0 10 16" fill="none" xmlns="http://www.w3.org/2000/svg">
<path d="M9.12526 8.00023C9.12596 8.14804 9.09713 8.2945 9.04046 8.43102C8.98379 8.56753 8.90043 8.69136 8.79526 8.79522L2.79526 14.7952C2.582 14.9939 2.29993 15.1021 2.00848 15.097C1.71702 15.0919 1.43895 14.9738 1.23283 14.7677C1.02671 14.5615 0.908638 14.2835 0.903496 13.992C0.898353 13.7006 1.00654 13.4185 1.20526 13.2052L6.41026 8.00023L1.20526 2.79522C1.00654 2.58196 0.898353 2.29989 0.903496 2.00844C0.908638 1.71699 1.02671 1.43891 1.23283 1.2328C1.43895 1.02668 1.71702 0.9086 2.00848 0.903458C2.29993 0.898314 2.582 1.00651 2.79526 1.20523L8.79526 7.20523C8.90043 7.30909 8.98379 7.43292 9.04046 7.56944C9.09713 7.70595 9.12596 7.85241 9.12526 8.00023Z" fill="currentColor"/>
</svg>
