<svg width="11" height="8" viewBox="0 0 11 8" fill="none" xmlns="http://www.w3.org/2000/svg">
<path d="M1.55118 3.2606C1.27027 2.95619 0.795778 2.93715 0.491371 3.21805C0.186964 3.49896 0.167914 3.97345 0.448822 4.27786L1.55118 3.2606ZM3.98137 7L3.43019 7.50863C3.56849 7.6585 3.76185 7.74559 3.96574 7.74984C4.16962 7.75409 4.36645 7.67513 4.51087 7.53115L3.98137 7ZM10.5295 1.53115C10.8229 1.23871 10.8236 0.76384 10.5312 0.470493C10.2387 0.177146 9.76384 0.17641 9.47049 0.468848L10.5295 1.53115ZM0.448822 4.27786L3.43019 7.50863L4.53254 6.49137L1.55118 3.2606L0.448822 4.27786ZM4.51087 7.53115L10.5295 1.53115L9.47049 0.468848L3.45186 6.46885L4.51087 7.53115Z" fill="currentColor"/>
</svg>
