<svg width="24" height="24" viewBox="0 0 24 24" fill="none" xmlns="http://www.w3.org/2000/svg">
<path d="M8.52985 7.46997C8.38767 7.33749 8.19963 7.26537 8.00532 7.26879C7.81102 7.27222 7.62564 7.35093 7.48822 7.48834C7.35081 7.62576 7.2721 7.81114 7.26867 8.00545C7.26524 8.19975 7.33737 8.38779 7.46985 8.52997L10.9398 12L11.9998 10.94L8.52985 7.46997Z" fill="currentColor"/>
<path d="M13.06 12L12 13.06L15.47 16.53C15.6106 16.6704 15.8012 16.7493 16 16.7493C16.1988 16.7493 16.3894 16.6704 16.53 16.53C16.6705 16.3894 16.7493 16.1988 16.7493 16C16.7493 15.8012 16.6705 15.6106 16.53 15.47L13.06 12Z" fill="currentColor"/>
<path d="M7.46983 15.47C7.32938 15.6106 7.25049 15.8012 7.25049 16C7.25049 16.1988 7.32938 16.3894 7.46983 16.53C7.61045 16.6704 7.80108 16.7493 7.99983 16.7493C8.19858 16.7493 8.3892 16.6704 8.52983 16.53L11.9998 13.06L10.9398 12L7.46983 15.47Z" fill="currentColor"/>
<path d="M16.53 8.52997C16.6625 8.38779 16.7346 8.19975 16.7312 8.00545C16.7277 7.81114 16.649 7.62576 16.5116 7.48834C16.3742 7.35093 16.1888 7.27222 15.9945 7.26879C15.8002 7.26537 15.6122 7.33749 15.47 7.46997L12 10.94L13.06 12L16.53 8.52997Z" fill="currentColor"/>
<path d="M12.0001 10.9389L10.9395 11.9995L12.0001 13.0602L13.0608 11.9995L12.0001 10.9389Z" fill="currentColor"/>
</svg>
