<svg width="12" height="8" viewBox="0 0 12 8" fill="none" xmlns="http://www.w3.org/2000/svg">
<path d="M5.99985 6.74997C5.90131 6.75043 5.80367 6.73121 5.71266 6.69344C5.62164 6.65566 5.5391 6.60008 5.46985 6.52997L1.46985 2.52997C1.33737 2.38779 1.26524 2.19975 1.26867 2.00545C1.2721 1.81115 1.35082 1.62576 1.48823 1.48835C1.62564 1.35093 1.81103 1.27222 2.00533 1.26879C2.19963 1.26537 2.38767 1.33749 2.52985 1.46997L5.99985 4.93997L9.46985 1.46997C9.61203 1.33749 9.80007 1.26537 9.99437 1.26879C10.1887 1.27222 10.3741 1.35093 10.5115 1.48835C10.6489 1.62576 10.7276 1.81115 10.731 2.00545C10.7345 2.19975 10.6623 2.38779 10.5298 2.52997L6.52985 6.52997C6.4606 6.60008 6.37806 6.65566 6.28704 6.69344C6.19603 6.73121 6.09839 6.75043 5.99985 6.74997V6.74997Z" fill="currentColor"/>
</svg>
