<svg width="24" height="24" viewBox="0 0 24 24" fill="none" xmlns="http://www.w3.org/2000/svg">
<path d="M7.25 9.63V19C7.25 19.1989 7.32902 19.3897 7.46967 19.5303C7.61032 19.671 7.80109 19.75 8 19.75C8.19891 19.75 8.38968 19.671 8.53033 19.5303C8.67098 19.3897 8.75 19.1989 8.75 19V9.63C8.26284 9.79027 7.73716 9.79027 7.25 9.63Z" fill="currentColor"/>
<path d="M16.75 14.37V5C16.75 4.80109 16.671 4.61032 16.5303 4.46967C16.3897 4.32902 16.1989 4.25 16 4.25C15.8011 4.25 15.6103 4.32902 15.4697 4.46967C15.329 4.61032 15.25 4.80109 15.25 5V14.37C15.7372 14.2097 16.2628 14.2097 16.75 14.37Z" fill="currentColor"/>
<path d="M7.99987 4.25005C7.33585 4.246 6.69296 4.48323 6.19073 4.91762C5.68849 5.35202 5.3611 5.95402 5.26941 6.61169C5.17773 7.26936 5.328 7.93794 5.69228 8.49313C6.05656 9.04833 6.61006 9.45234 7.24987 9.63005V9.00005C7.25246 8.80194 7.33231 8.61268 7.4724 8.47259C7.6125 8.33249 7.80176 8.25264 7.99987 8.25005C7.75264 8.25005 7.51097 8.17674 7.30541 8.03939C7.09985 7.90204 6.93963 7.70681 6.84502 7.47841C6.75041 7.25 6.72565 6.99867 6.77389 6.75619C6.82212 6.51371 6.94117 6.29098 7.11598 6.11617C7.2908 5.94135 7.51353 5.8223 7.75601 5.77407C7.99848 5.72584 8.24982 5.75059 8.47822 5.8452C8.70663 5.93981 8.90185 6.10003 9.03921 6.30559C9.17656 6.51115 9.24987 6.75282 9.24987 7.00005C9.24987 7.33157 9.11817 7.64951 8.88375 7.88394C8.64933 8.11836 8.33139 8.25005 7.99987 8.25005C8.19798 8.25264 8.38724 8.33249 8.52733 8.47259C8.66743 8.61268 8.74728 8.80194 8.74987 9.00005V9.63005C9.38968 9.45234 9.94318 9.04833 10.3075 8.49313C10.6717 7.93794 10.822 7.26936 10.7303 6.61169C10.6386 5.95402 10.3112 5.35202 9.80901 4.91762C9.30678 4.48323 8.66389 4.246 7.99987 4.25005Z" fill="currentColor"/>
<path d="M8 8.25C7.80189 8.25259 7.61263 8.33244 7.47253 8.47253C7.33244 8.61263 7.25259 8.80189 7.25 9V9.63C7.73716 9.79026 8.26284 9.79026 8.75 9.63V9C8.74741 8.80189 8.66756 8.61263 8.52747 8.47253C8.38737 8.33244 8.19811 8.25259 8 8.25Z" fill="currentColor"/>
<path d="M16.75 14.37V15C16.7474 15.1981 16.6676 15.3874 16.5275 15.5275C16.3874 15.6676 16.1981 15.7474 16 15.75C16.2472 15.75 16.4889 15.8233 16.6945 15.9607C16.9 16.098 17.0602 16.2932 17.1549 16.5216C17.2495 16.75 17.2742 17.0014 17.226 17.2439C17.1778 17.4863 17.0587 17.7091 16.8839 17.8839C16.7091 18.0587 16.4863 18.1777 16.2439 18.226C16.0014 18.2742 15.7501 18.2495 15.5217 18.1548C15.2932 18.0602 15.098 17.9 14.9607 17.6945C14.8233 17.4889 14.75 17.2472 14.75 17C14.75 16.6685 14.8817 16.3505 15.1161 16.1161C15.3505 15.8817 15.6685 15.75 16 15.75C15.8019 15.7474 15.6126 15.6676 15.4725 15.5275C15.3324 15.3874 15.2526 15.1981 15.25 15V14.37C14.6114 14.551 14.0598 14.9569 13.6971 15.5128C13.3343 16.0686 13.1848 16.7369 13.2762 17.3944C13.3676 18.0518 13.6937 18.654 14.1943 19.0898C14.6949 19.5257 15.3362 19.7657 16 19.7657C16.6638 19.7657 17.3051 19.5257 17.8057 19.0898C18.3064 18.654 18.6324 18.0518 18.7238 17.3944C18.8152 16.7369 18.6657 16.0686 18.3029 15.5128C17.9402 14.9569 17.3886 14.551 16.75 14.37Z" fill="currentColor"/>
<path d="M16 15.7501C16.1981 15.7475 16.3874 15.6676 16.5275 15.5275C16.6676 15.3874 16.7474 15.1982 16.75 15.0001V14.3701C16.2628 14.2098 15.7372 14.2098 15.25 14.3701V15.0001C15.2526 15.1982 15.3324 15.3874 15.4725 15.5275C15.6126 15.6676 15.8019 15.7475 16 15.7501Z" fill="currentColor"/>
</svg>
