<svg width="24" height="24" viewBox="0 0 24 24" fill="none" xmlns="http://www.w3.org/2000/svg">
<g clip-path="url(#clip0_1259:4307)">
<path d="M20.498 4.79295L20.2981 4.58267C19.8405 4.08378 19.2845 3.68552 18.6653 3.41309C18.0462 3.14067 17.3773 3 16.7011 3C16.0249 3 15.356 3.14067 14.7369 3.41309C14.1177 3.68552 13.5617 4.08378 13.1041 4.58267L11.995 5.76422L10.8859 4.58267C10.4283 4.08378 9.87227 3.68552 9.2531 3.41309C8.63394 3.14067 7.96509 3 7.28887 3C6.61266 3 5.94381 3.14067 5.32464 3.41309C4.70548 3.68552 4.14948 4.08378 3.69184 4.58267L3.492 4.79295C2.53276 5.83279 2 7.19684 2 8.61294C2 10.029 2.53276 11.3931 3.492 12.4329L4.60109 13.6145L10.5961 19.9728L11.3056 20.7138C11.4923 20.8972 11.7434 21 12.005 21C12.2665 21 12.5176 20.8972 12.7044 20.7138L13.4138 19.9728L19.4089 13.6145L20.518 12.4329C21.4745 11.3906 22.0037 10.0251 22 8.60903C21.9963 7.19292 21.4599 5.83027 20.498 4.79295Z" fill="currentColor"/>
</g>
<defs>
<clipPath id="clip0_1259:4307">
<rect width="24" height="24" fill="white"/>
</clipPath>
</defs>
</svg>
