<svg width="24" height="24" viewBox="0 0 24 24" fill="none" xmlns="http://www.w3.org/2000/svg">
<path d="M16.6938 4.5006C17.1654 4.50286 17.6315 4.60262 18.0628 4.79362C18.4942 4.98462 18.8815 5.26276 19.2005 5.61061L19.4002 5.8206C20.0985 6.5795 20.4862 7.57367 20.4862 8.6056C20.4862 9.63753 20.0985 10.6317 19.4002 11.3906L18.2917 12.5706L12.2996 18.9206L11.99 19.2506L11.6804 18.9206L5.68835 12.5706L4.57982 11.3906C3.88149 10.6317 3.49382 9.63753 3.49382 8.6056C3.49382 7.57367 3.88149 6.5795 4.57982 5.8206L4.77956 5.61061C5.09673 5.26382 5.4825 4.9869 5.91232 4.79745C6.34214 4.608 6.80663 4.51017 7.27625 4.51017C7.74587 4.51017 8.21036 4.608 8.64018 4.79745C9.07001 4.9869 9.45577 5.26382 9.77295 5.61061L10.8815 6.79061L11.99 7.9406L13.0786 6.79061L14.1871 5.61061C14.5061 5.26276 14.8934 4.98462 15.3247 4.79362C15.7561 4.60262 16.2222 4.50286 16.6938 4.5006ZM16.6938 3.0006C16.0184 3.00353 15.3509 3.14527 14.7324 3.41705C14.114 3.68883 13.5579 4.08486 13.0985 4.5806L11.99 5.7606L10.8815 4.5806C10.4241 4.08237 9.86835 3.68463 9.24949 3.41255C8.63064 3.14048 7.96212 3 7.28624 3C6.61036 3 5.94184 3.14048 5.32299 3.41255C4.70413 3.68463 4.14841 4.08237 3.691 4.5806L3.49126 4.79061C2.5325 5.82909 2 7.19135 2 8.6056C2 10.0199 2.5325 11.3821 3.49126 12.4206L4.5998 13.6006L10.5919 19.9506L11.3009 20.6906C11.3898 20.7876 11.4978 20.865 11.6182 20.918C11.7385 20.971 11.8685 20.9983 12 20.9983C12.1315 20.9983 12.2615 20.971 12.3818 20.918C12.5022 20.865 12.6102 20.7876 12.6991 20.6906L13.4081 19.9506L19.4002 13.6006L20.5087 12.4206C21.4675 11.3821 22 10.0199 22 8.6056C22 7.19135 21.4675 5.82909 20.5087 4.79061L20.309 4.5806C19.8451 4.08522 19.2854 3.68965 18.6638 3.418C18.0423 3.14636 17.372 3.00434 16.6938 3.0006Z" fill="currentColor"/>
</svg>
