<svg width="24" height="24" viewBox="0 0 24 24" fill="none" xmlns="http://www.w3.org/2000/svg">
<path d="M19 10H17.75V8C17.75 6.47501 17.1442 5.01247 16.0659 3.93414C14.9875 2.8558 13.525 2.25 12 2.25C10.475 2.25 9.01247 2.8558 7.93414 3.93414C6.8558 5.01247 6.25 6.47501 6.25 8V10H5C4.46957 10 3.96086 10.2107 3.58579 10.5858C3.21071 10.9609 3 11.4696 3 12V19C3 19.5304 3.21071 20.0391 3.58579 20.4142C3.96086 20.7893 4.46957 21 5 21H19C19.5304 21 20.0391 20.7893 20.4142 20.4142C20.7893 20.0391 21 19.5304 21 19V12C21 11.4696 20.7893 10.9609 20.4142 10.5858C20.0391 10.2107 19.5304 10 19 10ZM12.75 17C12.75 17.1989 12.671 17.3897 12.5303 17.5303C12.3897 17.671 12.1989 17.75 12 17.75C11.8011 17.75 11.6103 17.671 11.4697 17.5303C11.329 17.3897 11.25 17.1989 11.25 17V14C11.25 13.8011 11.329 13.6103 11.4697 13.4697C11.6103 13.329 11.8011 13.25 12 13.25C12.1989 13.25 12.3897 13.329 12.5303 13.4697C12.671 13.6103 12.75 13.8011 12.75 14V17ZM16.25 10H7.75V8C7.75 6.87283 8.19777 5.79183 8.9948 4.9948C9.79183 4.19777 10.8728 3.75 12 3.75C13.1272 3.75 14.2082 4.19777 15.0052 4.9948C15.8022 5.79183 16.25 6.87283 16.25 8V10Z" fill="currentColor"/>
</svg>
