<svg width="24" height="24" viewBox="0 0 24 24" fill="none" xmlns="http://www.w3.org/2000/svg">
<path d="M10 4.5C11.0878 4.5 12.1512 4.82257 13.0556 5.42692C13.9601 6.03126 14.6651 6.89025 15.0813 7.89524C15.4976 8.90023 15.6065 10.0061 15.3943 11.073C15.1821 12.1399 14.6583 13.1199 13.8891 13.8891C13.1199 14.6583 12.1399 15.1821 11.073 15.3943C10.0061 15.6065 8.90024 15.4976 7.89524 15.0813C6.89025 14.6651 6.03127 13.9601 5.42692 13.0556C4.82257 12.1512 4.5 11.0878 4.5 10C4.50265 8.54212 5.08296 7.14471 6.11384 6.11383C7.14471 5.08295 8.54212 4.50264 10 4.5ZM10 3C8.61553 3 7.26216 3.41054 6.11101 4.17971C4.95987 4.94888 4.06266 6.04213 3.53285 7.32122C3.00303 8.6003 2.86441 10.0078 3.13451 11.3656C3.4046 12.7235 4.07129 13.9708 5.05026 14.9497C6.02922 15.9287 7.2765 16.5954 8.63437 16.8655C9.99224 17.1356 11.3997 16.997 12.6788 16.4672C13.9579 15.9373 15.0511 15.0401 15.8203 13.889C16.5895 12.7378 17 11.3845 17 10C17 8.14348 16.2625 6.36301 14.9497 5.05025C13.637 3.7375 11.8565 3 10 3Z" fill="currentColor"/>
<path d="M19.9998 20.75C19.9013 20.7504 19.8037 20.7312 19.7127 20.6934C19.6216 20.6557 19.5391 20.6001 19.4698 20.53L14.4698 15.53C14.3374 15.3878 14.2652 15.1997 14.2687 15.0054C14.2721 14.8111 14.3508 14.6258 14.4882 14.4883C14.6256 14.3509 14.811 14.2722 15.0053 14.2688C15.1996 14.2654 15.3877 14.3375 15.5298 14.47L20.5298 19.47C20.6703 19.6106 20.7492 19.8012 20.7492 20C20.7492 20.1987 20.6703 20.3893 20.5298 20.53C20.4606 20.6001 20.3781 20.6557 20.287 20.6934C20.196 20.7312 20.0984 20.7504 19.9998 20.75Z" fill="currentColor"/>
</svg>
