<svg width="24" height="24" viewBox="0 0 24 24" fill="none" xmlns="http://www.w3.org/2000/svg">
<g clip-path="url(#clip0_1010:2406)">
<path d="M18.9998 16C18.5124 15.9979 18.0319 16.1146 17.5998 16.34C17.2846 16.5153 17.0008 16.7417 16.7598 17.01L8.90977 12.65C8.94024 12.5151 8.9603 12.378 8.96977 12.24V11.8C8.9603 11.662 8.94024 11.5249 8.90977 11.39L16.7598 7C17.0008 7.26826 17.2846 7.49466 17.5998 7.67C18.0319 7.89537 18.5124 8.01207 18.9998 8.01C19.668 8.0064 20.3158 7.77983 20.8406 7.3662C21.3654 6.95258 21.7371 6.37559 21.8967 5.72673C22.0564 5.07787 21.9948 4.39429 21.7218 3.78439C21.4488 3.1745 20.98 2.6732 20.3898 2.36C19.9639 2.12538 19.486 2.00159 18.9998 2C18.5503 2.00097 18.1068 2.10294 17.702 2.29836C17.2972 2.49379 16.9415 2.77767 16.6612 3.12904C16.3808 3.4804 16.183 3.89027 16.0824 4.32835C15.9818 4.76643 15.9809 5.22153 16.0798 5.66L8.21977 10L8.02977 9.82C7.90469 9.70643 7.77095 9.60278 7.62977 9.51L7.49977 9.39H7.42977C7.2997 9.33446 7.16607 9.28769 7.02977 9.25C6.94896 9.21067 6.86541 9.17725 6.77977 9.15C6.53469 9.08666 6.28288 9.05308 6.02977 9.05C5.77666 9.05308 5.52484 9.08666 5.27977 9.15C5.19413 9.17725 5.11057 9.21067 5.02977 9.25C4.89346 9.28769 4.75983 9.33446 4.62977 9.39C4.60666 9.39458 4.58287 9.39458 4.55977 9.39L4.38977 9.51C4.23382 9.6064 4.08953 9.72048 3.95977 9.85L3.76977 10C3.59995 10.1833 3.45534 10.3885 3.33977 10.61L3.27977 10.78C3.21953 10.8989 3.16936 11.0227 3.12977 11.15C3.10397 11.242 3.08393 11.3355 3.06977 11.43C3.04742 11.5256 3.03072 11.6224 3.01977 11.72C3.00643 11.9131 3.00643 12.1069 3.01977 12.3C3.03072 12.3976 3.04742 12.4944 3.06977 12.59C3.08393 12.6845 3.10397 12.778 3.12977 12.87C3.16936 12.9973 3.21953 13.1211 3.27977 13.24L3.33977 13.41C3.45534 13.6316 3.59995 13.8367 3.76977 14.02L3.91977 14.16C4.04953 14.2895 4.19382 14.4036 4.34977 14.5L4.51977 14.62C4.54287 14.6154 4.56666 14.6154 4.58977 14.62C4.71983 14.6755 4.85346 14.7223 4.98977 14.76C5.07057 14.7993 5.15413 14.8328 5.23977 14.86C5.48484 14.9233 5.73666 14.9569 5.98977 14.96C6.24288 14.9569 6.49469 14.9233 6.73977 14.86C6.82541 14.8328 6.90896 14.7993 6.98977 14.76C7.12607 14.7223 7.2597 14.6755 7.38977 14.62H7.45977L7.61977 14.51C7.76095 14.4172 7.89469 14.3136 8.01977 14.2L8.20977 14L16.0698 18.35C15.9724 18.7886 15.9748 19.2435 16.0768 19.681C16.1788 20.1186 16.3778 20.5276 16.659 20.878C16.9403 21.2283 17.2966 21.5111 17.7018 21.7053C18.1069 21.8995 18.5505 22.0002 18.9998 22C19.4851 22.0015 19.963 21.8811 20.3898 21.65C20.98 21.3368 21.4488 20.8355 21.7218 20.2256C21.9948 19.6157 22.0564 18.9321 21.8967 18.2833C21.7371 17.6344 21.3654 17.0574 20.8406 16.6438C20.3158 16.2302 19.668 16.0036 18.9998 16ZM17.6698 4.3C17.7983 4.05876 17.9899 3.85693 18.2241 3.71604C18.4583 3.57515 18.7264 3.50048 18.9998 3.5C19.2431 3.50165 19.4828 3.55984 19.6998 3.67C19.9979 3.82548 20.2352 4.07664 20.3735 4.38316C20.5118 4.68967 20.543 5.03376 20.4623 5.36018C20.3816 5.68661 20.1935 5.97644 19.9282 6.18314C19.663 6.38985 19.336 6.50144 18.9998 6.5C18.7563 6.49947 18.5164 6.44121 18.2998 6.33C18.1246 6.23919 17.9691 6.11472 17.8421 5.96371C17.7151 5.81271 17.6192 5.63814 17.5598 5.45C17.4447 5.06702 17.4842 4.65423 17.6698 4.3ZM7.49977 12.15C7.50357 12.1832 7.50357 12.2168 7.49977 12.25V12.44C7.44532 12.5911 7.36773 12.7328 7.26977 12.86L7.10977 13C6.99436 13.1273 6.85932 13.2354 6.70977 13.32L6.49977 13.4H6.36977C6.12081 13.4666 5.85872 13.4666 5.60977 13.4H5.49977L5.28977 13.31C5.14021 13.2254 5.00517 13.1173 4.88977 12.99L4.80977 12.88C4.71181 12.7528 4.63421 12.6111 4.57977 12.46C4.57605 12.3967 4.57605 12.3333 4.57977 12.27C4.57597 12.2368 4.57597 12.2032 4.57977 12.17C4.54608 12.1169 4.5192 12.0598 4.49977 12C4.49475 11.9501 4.49475 11.8999 4.49977 11.85C4.49511 11.8168 4.49511 11.7832 4.49977 11.75C4.4951 11.6868 4.4951 11.6232 4.49977 11.56C4.55421 11.4089 4.63181 11.2672 4.72977 11.14L4.86977 11C4.98517 10.8727 5.12021 10.7646 5.26977 10.68L5.49977 10.6H5.62977C5.75597 10.5847 5.88356 10.5847 6.00977 10.6C6.13936 10.5854 6.27018 10.5854 6.39977 10.6H6.51977L6.72977 10.69C6.87932 10.7746 7.01436 10.8827 7.12977 11.01L7.20977 11.12C7.30773 11.2472 7.38532 11.3889 7.43977 11.54V11.73C7.44442 11.7632 7.44442 11.7968 7.43977 11.83C7.46653 11.8841 7.48667 11.9411 7.49977 12C7.50478 12.0499 7.50478 12.1001 7.49977 12.15ZM20.4998 19.44C20.3835 19.8214 20.1211 20.1414 19.7698 20.33C19.5528 20.4402 19.3131 20.4984 19.0698 20.5C18.7964 20.4995 18.5283 20.4248 18.2941 20.284C18.0599 20.1431 17.8683 19.9412 17.7398 19.7C17.5542 19.3458 17.5147 18.933 17.6298 18.55C17.6892 18.3619 17.7851 18.1873 17.9121 18.0363C18.0391 17.8853 18.1946 17.7608 18.3698 17.67C18.5864 17.5588 18.8263 17.5005 19.0698 17.5C19.3048 17.4985 19.5368 17.5526 19.7469 17.6579C19.9571 17.7632 20.1393 17.9167 20.2787 18.1059C20.4182 18.2951 20.5109 18.5146 20.5493 18.7464C20.5877 18.9783 20.5708 19.216 20.4998 19.44Z" fill="currentColor"/>
</g>
<defs>
<clipPath id="clip0_1010:2406">
<rect width="19" height="20" fill="white" transform="translate(3 2)"/>
</clipPath>
</defs>
</svg>
