<svg width="24" height="24" viewBox="0 0 24 24" fill="none" xmlns="http://www.w3.org/2000/svg">
<path d="M13.7754 4.00001C13.4625 4.00146 13.1494 4.12332 12.9109 4.36431L8.3869 8.93735C8.0809 9.24684 7.90909 9.66536 7.90909 10.1028V18.3494C7.90909 19.2614 8.64136 20 9.54545 20H16.9027C17.5564 20 18.1479 19.6072 18.4064 19.0006L20.8674 13.2218C20.9549 13.0163 21 12.7943 21 12.5706V10.9216C21 10.0097 20.2677 9.27101 19.3636 9.27101H14.1669L14.9803 5.50394C15.0703 5.08799 14.9418 4.65418 14.6415 4.35625C14.401 4.11774 14.0882 3.99857 13.7754 4.00001ZM3.81818 10.0963C3.36655 10.0963 3 10.4661 3 10.9216V19.1747C3 19.6303 3.36655 20 3.81818 20H5.45455C5.90618 20 6.27273 19.6303 6.27273 19.1747V10.9216C6.27273 10.4661 5.90618 10.0963 5.45455 10.0963H3.81818Z" fill="currentColor"/>
</svg>
