<svg width="24" height="24" viewBox="0 0 24 24" fill="none" xmlns="http://www.w3.org/2000/svg">
<path d="M3.81818 4C3.36655 4 3 4.36975 3 4.82534V13.0787C3 13.5343 3.36655 13.9041 3.81818 13.9041H5.45455C5.90618 13.9041 6.27273 13.5343 6.27273 13.0787V4.82534C6.27273 4.36975 5.90618 4 5.45455 4H3.81818ZM9.54545 4C8.64136 4 7.90909 4.73868 7.90909 5.65068V13.8976C7.90909 14.3351 8.0809 14.7536 8.3869 15.0631L12.9109 19.6363C13.3879 20.1183 14.1604 20.1214 14.6415 19.6444C14.9418 19.3464 15.0703 18.9126 14.9803 18.4966L14.1669 14.7294H19.3636C20.2677 14.7294 21 13.9907 21 13.0787V11.4297C21 11.206 20.9549 10.9839 20.8674 10.7784L18.4064 4.99943C18.1487 4.39281 17.5564 4 16.9027 4H9.54545Z" fill="currentColor"/>
</svg>
