<svg width="24" height="24" viewBox="0 0 24 24" fill="none" xmlns="http://www.w3.org/2000/svg">
<path d="M20 20.75H4C3.80189 20.7474 3.61263 20.6676 3.47253 20.5275C3.33244 20.3874 3.25259 20.1981 3.25 20V4C3.25259 3.80189 3.33244 3.61263 3.47253 3.47253C3.61263 3.33244 3.80189 3.25259 4 3.25H12.94C13.1389 3.25 13.3297 3.32902 13.4703 3.46967C13.611 3.61032 13.69 3.80109 13.69 4C13.69 4.19891 13.611 4.38968 13.4703 4.53033C13.3297 4.67098 13.1389 4.75 12.94 4.75H4.75V19.25H19.25V11.91C19.25 11.7111 19.329 11.5203 19.4697 11.3797C19.6103 11.239 19.8011 11.16 20 11.16C20.1989 11.16 20.3897 11.239 20.5303 11.3797C20.671 11.5203 20.75 11.7111 20.75 11.91V20C20.7474 20.1981 20.6676 20.3874 20.5275 20.5275C20.3874 20.6676 20.1981 20.7474 20 20.75V20.75Z" fill="currentColor"/>
<path d="M8.80989 16.31C8.61148 16.3077 8.42161 16.2289 8.27989 16.09C8.19524 16.0065 8.13196 15.9039 8.09541 15.7907C8.05885 15.6776 8.0501 15.5573 8.0699 15.44L8.55989 12.44C8.59082 12.2866 8.66349 12.1448 8.76989 12.03L18.5899 2.22003C18.6588 2.14927 18.7413 2.09304 18.8323 2.05464C18.9233 2.01624 19.0211 1.99646 19.1199 1.99646C19.2187 1.99646 19.3165 2.01624 19.4075 2.05464C19.4985 2.09304 19.581 2.14927 19.6499 2.22003L22.1299 4.69003C22.2703 4.83065 22.3492 5.02128 22.3492 5.22003C22.3492 5.41878 22.2703 5.60941 22.1299 5.75003L12.3099 15.6C12.1964 15.7082 12.054 15.7812 11.8999 15.81L8.8999 16.3L8.80989 16.31ZM9.9999 13L9.7199 14.7L11.4199 14.42L20.5399 5.30003L19.1199 3.89003L9.9999 13Z" fill="currentColor"/>
</svg>
