<svg width="76" height="40" viewBox="0 0 76 40" fill="none" xmlns="http://www.w3.org/2000/svg">
<line x1="39.9941" y1="18.8804" x2="55.9919" y2="18.8804" stroke="#C5C5C5" stroke-width="2"/>
<ellipse cx="66.0015" cy="19.9399" rx="9.99857" ry="10" fill="#C5C5C5"/>
<path d="M20.0015 40C8.78291 40 0.00215727 31.2498 0.00215727 20.0942C-0.0367816 17.4694 0.451769 14.8631 1.43924 12.4269C2.42672 9.99073 3.89343 7.77326 5.75419 5.90346C7.61496 4.03367 9.83266 2.54886 12.2782 1.53538C14.7237 0.521909 17.3483 0 19.9994 0C22.6505 0 25.275 0.521909 27.7205 1.53538C30.166 2.54886 32.3837 4.03367 34.2445 5.90346C36.1052 7.77326 37.572 9.99073 38.5594 12.4269C39.5469 14.8631 40.0355 17.4694 39.9965 20.0942C40.0051 31.2498 31.2201 40 20.0015 40ZM12.4332 28.4214H28.2515V25.0674H22.5904V9.82294H18.8365C18.6172 11.2794 17.8789 12.6101 16.7553 13.5747C15.6316 14.5393 14.1966 15.0741 12.7095 15.0825L12.8647 18.7526C15.4062 18.7526 17.7319 17.3896 18.3144 15.5054H18.474V25.0888H12.4332V28.4214Z" fill="black"/>
</svg>
