<svg width="77" height="40" viewBox="0 0 77 40" fill="none" xmlns="http://www.w3.org/2000/svg">
<line x1="19.9941" y1="19" x2="35.9919" y2="19" stroke="#C5C5C5" stroke-width="2"/>
<ellipse cx="9.99857" cy="20" rx="9.99857" ry="10" fill="#C5C5C5"/>
<path d="M55.9989 40.0006C44.7787 40.0006 36.001 31.2018 36.001 19.9747C35.974 17.3489 36.4725 14.7441 37.4672 12.3122C38.4619 9.88036 39.9329 7.67027 41.7946 5.81084C43.6562 3.95142 45.8711 2.47989 48.3099 1.48232C50.7487 0.484746 53.3626 -0.0189667 55.9989 0.00058032C58.6357 -0.0195404 61.2499 0.483743 63.6892 1.48106C66.1285 2.47838 68.3439 3.94968 70.206 5.80917C72.0681 7.66865 73.5396 9.87903 74.5346 12.3112C75.5295 14.7433 76.028 17.3485 76.001 19.9747C76.001 31.2018 67.2191 40.0006 55.9989 40.0006ZM48.9129 28.6187H63.1971V25.0854L53.6728 25.2445V25.0854C59.8612 23.2973 63.1971 20.0823 63.1971 16.1278C63.1971 12.2808 60.2842 9.48686 56.1068 9.48686C51.8216 9.48686 48.805 12.2807 48.805 16.4458C48.8084 17.0173 48.8972 17.5853 49.0683 18.1309L53.0903 17.8685C52.942 17.3899 52.8706 16.8909 52.8789 16.39C52.8789 14.3912 54.2037 13.0202 55.9989 13.0202C57.7942 13.0202 59.1233 14.3353 59.1233 16.3383C59.1233 19.2354 56.1585 21.9261 48.9129 25.455V28.6187Z" fill="black"/>
</svg>
