<svg width="32" height="32" viewBox="0 0 32 32" fill="none" xmlns="http://www.w3.org/2000/svg">
<path d="M19.9967 2.66406L11.9967 2.66927L9.55143 5.33333H2.66602V26.6667H29.3327V5.33333H22.4551L19.9967 2.66406ZM15.9993 9.33333C19.7327 9.33333 22.666 12.2667 22.666 16C22.666 19.7333 19.7327 22.6667 15.9993 22.6667C12.266 22.6667 9.33268 19.7333 9.33268 16C9.33268 12.2667 12.266 9.33333 15.9993 9.33333ZM15.9993 12C14.9385 12 13.9211 12.4214 13.1709 13.1716C12.4208 13.9217 11.9993 14.9391 11.9993 16C11.9993 17.0609 12.4208 18.0783 13.1709 18.8284C13.9211 19.5786 14.9385 20 15.9993 20C17.0602 20 18.0776 19.5786 18.8278 18.8284C19.5779 18.0783 19.9993 17.0609 19.9993 16C19.9993 14.9391 19.5779 13.9217 18.8278 13.1716C18.0776 12.4214 17.0602 12 15.9993 12Z" fill="currentColor"/>
</svg>
