<svg width="20" height="20" viewBox="0 0 20 20" fill="none" xmlns="http://www.w3.org/2000/svg">
<g clip-path="url(#clip0_245_2461)">
<path d="M9.99946 20.0001C4.38936 20.0001 0.000520911 15.6007 0.000520911 9.98709C-0.0129844 8.67418 0.236241 7.37181 0.733602 6.15587C1.23096 4.93994 1.96647 3.83489 2.89728 2.90518C3.8281 1.97546 4.93556 1.2397 6.15495 0.740915C7.37435 0.242129 8.68128 -0.0097275 9.99946 4.60196e-05C11.3178 -0.0100143 12.625 0.241627 13.8446 0.740286C15.0643 1.23894 16.172 1.9746 17.103 2.90434C18.0341 3.83408 18.7698 4.93927 19.2673 6.15535C19.7648 7.37143 20.014 8.674 20.0005 9.98709C20.0005 15.6007 15.6096 20.0001 9.99946 20.0001ZM6.45644 14.3091H13.5985V12.5425L8.83642 12.622V12.5425C11.9306 11.6484 13.5985 10.0409 13.5985 8.06367C13.5985 6.14017 12.1421 4.74319 10.0534 4.74319C7.91078 4.74319 6.40249 6.14012 6.40249 8.22265C6.40422 8.50841 6.4486 8.79243 6.53414 9.0652L8.54516 8.93403C8.47099 8.69469 8.43531 8.44518 8.43943 8.19473C8.43943 7.19538 9.10185 6.50983 9.99946 6.50983C10.8971 6.50983 11.5617 7.16741 11.5617 8.16892C11.5617 9.61745 10.0793 10.9628 6.45644 12.7273V14.3091Z" fill="currentColor"/>
</g>
<defs>
<clipPath id="clip0_245_2461">
<rect width="20" height="20" fill="white"/>
</clipPath>
</defs>
</svg>
