<svg width="20" height="20" viewBox="0 0 20 20" fill="none" xmlns="http://www.w3.org/2000/svg">
<g clip-path="url(#clip0_245_2396)">
<path d="M9.99632 20C4.38622 20 -0.00478059 15.5986 -0.00478059 9.98715C-0.0242528 8.66684 0.220057 7.35585 0.713866 6.13041C1.20767 4.90498 1.94113 3.78957 2.87165 2.84904C3.80217 1.9085 4.91117 1.16163 6.13411 0.651835C7.35704 0.142044 8.66954 -0.120483 9.99527 -0.120483C11.321 -0.120483 12.6334 0.142044 13.8564 0.651835C15.0793 1.16163 16.1883 1.9085 17.1188 2.84904C18.0493 3.78957 18.7828 4.90498 19.2766 6.13041C19.7704 7.35585 20.0147 8.66684 19.9953 9.98715C19.9996 15.5986 15.6064 20 9.99632 20ZM6.21165 14.1758H14.1219V12.4888H11.291V4.82059H9.41374C9.30406 5.5532 8.93489 6.22259 8.37296 6.70778C7.81104 7.19298 7.09344 7.46198 6.34978 7.46619L6.42742 9.31231C7.69833 9.31231 8.86137 8.62673 9.15267 7.67895H9.23247V12.4995H6.21165V14.1758Z" fill="currentColor"/>
</g>
<defs>
<clipPath id="clip0_245_2396">
<rect width="20" height="20" fill="white"/>
</clipPath>
</defs>
</svg>
