<svg width="24" height="24" viewBox="0 0 24 24" fill="none" xmlns="http://www.w3.org/2000/svg">
<path d="M16.74 5.5C17.2153 5.50131 17.6853 5.60054 18.1206 5.79152C18.5559 5.9825 18.9471 6.26112 19.27 6.61L19.47 6.83C20.1729 7.58508 20.5637 8.57839 20.5637 9.61C20.5637 10.6416 20.1729 11.6349 19.47 12.39L18.36 13.56L12.36 19.91L12.03 20.26L11.7 19.91L5.69997 13.56L4.52997 12.39C3.82706 11.6349 3.43627 10.6416 3.43627 9.61C3.43627 8.57839 3.82706 7.58508 4.52997 6.83L4.72997 6.61C5.05213 6.26031 5.44328 5.9812 5.87874 5.79029C6.3142 5.59938 6.7845 5.50081 7.25997 5.50081C7.73544 5.50081 8.20574 5.59938 8.6412 5.79029C9.07666 5.9812 9.46781 6.26031 9.78997 6.61L10.91 7.79L12 8.93L13.09 7.79L14.21 6.61C14.5321 6.26016 14.9232 5.9809 15.3586 5.78985C15.7941 5.5988 16.2644 5.5001 16.74 5.5V5.5ZM16.74 4C16.0609 4.00373 15.3897 4.14575 14.7673 4.4174C14.145 4.68904 13.5844 5.08462 13.12 5.58L12 6.76L10.88 5.58C10.4176 5.08205 9.85745 4.68485 9.23458 4.41324C8.6117 4.14162 7.93949 4.00143 7.25997 4.00143C6.58045 4.00143 5.90824 4.14162 5.28536 4.41324C4.66249 4.68485 4.10235 5.08205 3.63997 5.58L3.43997 5.79C2.47558 6.8263 1.93945 8.18939 1.93945 9.605C1.93945 11.0206 2.47558 12.3837 3.43997 13.42L4.55997 14.6L10.56 20.95L11.26 21.69C11.3529 21.7837 11.4635 21.8581 11.5854 21.9089C11.7073 21.9597 11.838 21.9858 11.97 21.9858C12.102 21.9858 12.2327 21.9597 12.3545 21.9089C12.4764 21.8581 12.587 21.7837 12.68 21.69L13.38 20.95L19.38 14.6L20.5 13.42C21.4644 12.3837 22.0005 11.0206 22.0005 9.605C22.0005 8.18939 21.4644 6.8263 20.5 5.79L20.3 5.58C19.8425 5.09186 19.2916 4.7005 18.6801 4.42911C18.0686 4.15771 17.4089 4.01179 16.74 4V4Z" fill="currentColor"/>
</svg>
