<svg width="24" height="24" viewBox="0 0 24 24" fill="none" xmlns="http://www.w3.org/2000/svg">
<path d="M20.58 4.75996L20.38 4.54996C19.9184 4.05068 19.3585 3.65228 18.7355 3.37981C18.1125 3.10733 17.4399 2.96667 16.76 2.96667C16.08 2.96667 15.4074 3.10733 14.7844 3.37981C14.1614 3.65228 13.6016 4.05068 13.14 4.54996L12 5.72996L10.88 4.54996C10.4193 4.05094 9.86024 3.65271 9.23809 3.38033C8.61594 3.10796 7.94413 2.96735 7.26497 2.96735C6.58581 2.96735 5.914 3.10796 5.29185 3.38033C4.66969 3.65271 4.11067 4.05094 3.64997 4.54996L3.43997 4.75996C2.47559 5.79626 1.93945 7.15935 1.93945 8.57496C1.93945 9.99057 2.47559 11.3537 3.43997 12.39L4.55997 13.57L10.56 19.92L11.26 20.66C11.3529 20.7537 11.4635 20.8281 11.5854 20.8789C11.7073 20.9296 11.838 20.9558 11.97 20.9558C12.102 20.9558 12.2327 20.9296 12.3545 20.8789C12.4764 20.8281 12.587 20.7537 12.68 20.66L13.39 19.92L19.39 13.57L20.51 12.39C21.4839 11.3625 22.0326 10.0044 22.0456 8.58873C22.0586 7.1731 21.5349 5.80508 20.58 4.75996V4.75996Z" fill="currentColor"/>
</svg>
