<svg width="24" height="24" viewBox="0 0 24 24" fill="none" xmlns="http://www.w3.org/2000/svg">
<path d="M7.18768 17.4802C6.14209 16.4322 5.43053 15.0978 5.14288 13.6455C4.85522 12.1933 5.00437 10.6885 5.57148 9.32096C6.1386 7.95347 7.09824 6.78471 8.32921 5.96229C9.56017 5.13987 11.0073 4.70068 12.4877 4.7002" stroke="white" stroke-width="1.5" stroke-linecap="round" stroke-linejoin="round"/>
<path d="M12.4476 6.61L13.9876 4.81L12.4476 3" stroke="white" stroke-width="1.5" stroke-linecap="round" stroke-linejoin="round"/>
<path d="M17.4177 6.75C18.4633 7.79805 19.1748 9.13244 19.4625 10.5847C19.7501 12.0369 19.601 13.5417 19.0339 14.9092C18.4668 16.2767 17.5071 17.4455 16.2761 18.2679C15.0452 19.0903 13.5981 19.5295 12.1177 19.53" stroke="white" stroke-width="1.5" stroke-linecap="round" stroke-linejoin="round"/>
<path d="M12.1577 17.6201L10.6077 19.4201L12.1577 21.2301" stroke="white" stroke-width="1.5" stroke-linecap="round" stroke-linejoin="round"/>
</svg>
