<svg width="24" height="24" viewBox="0 0 24 24" fill="none" xmlns="http://www.w3.org/2000/svg">
<path d="M12 3.5C12.6922 3.5 13.3689 3.70527 13.9445 4.08986C14.5201 4.47444 14.9687 5.02107 15.2336 5.66061C15.4985 6.30015 15.5678 7.00388 15.4327 7.68282C15.2977 8.36175 14.9644 8.98539 14.4749 9.47487C13.9854 9.96436 13.3618 10.2977 12.6828 10.4327C12.0039 10.5678 11.3001 10.4985 10.6606 10.2336C10.0211 9.96867 9.47444 9.52007 9.08986 8.9445C8.70527 8.36892 8.5 7.69223 8.5 7C8.5 6.07174 8.86875 5.1815 9.52513 4.52513C10.1815 3.86875 11.0717 3.5 12 3.5ZM12 2C11.0111 2 10.0444 2.29324 9.22215 2.84265C8.39991 3.39206 7.75904 4.17295 7.38061 5.08658C7.00217 6.00021 6.90315 7.00555 7.09608 7.97545C7.289 8.94536 7.76521 9.83627 8.46447 10.5355C9.16373 11.2348 10.0546 11.711 11.0245 11.9039C11.9945 12.0969 12.9998 11.9978 13.9134 11.6194C14.827 11.241 15.6079 10.6001 16.1574 9.77785C16.7068 8.95561 17 7.98891 17 7C17 5.67392 16.4732 4.40215 15.5355 3.46447C14.5979 2.52678 13.3261 2 12 2Z" fill="black"/>
<path d="M20 20.75C19.8019 20.7474 19.6126 20.6676 19.4725 20.5275C19.3324 20.3874 19.2526 20.1981 19.25 20C19.25 18.0772 18.4862 16.2331 17.1265 14.8735C15.7669 13.5138 13.9228 12.75 12 12.75C10.0772 12.75 8.23311 13.5138 6.87347 14.8735C5.51384 16.2331 4.75 18.0772 4.75 20C4.75 20.1989 4.67098 20.3897 4.53033 20.5303C4.38968 20.671 4.19891 20.75 4 20.75C3.80109 20.75 3.61032 20.671 3.46967 20.5303C3.32902 20.3897 3.25 20.1989 3.25 20C3.25 17.6794 4.17187 15.4538 5.81282 13.8128C7.45376 12.1719 9.67936 11.25 12 11.25C14.3206 11.25 16.5462 12.1719 18.1872 13.8128C19.8281 15.4538 20.75 17.6794 20.75 20C20.7474 20.1981 20.6676 20.3874 20.5275 20.5275C20.3874 20.6676 20.1981 20.7474 20 20.75Z" fill="black"/>
</svg>
