<svg width="24" height="24" viewBox="0 0 24 24" fill="none" xmlns="http://www.w3.org/2000/svg">
<path d="M19.46 20.75C19.3258 20.7475 19.1947 20.7096 19.08 20.64L12 16.37L4.89 20.64C4.77516 20.7087 4.64384 20.745 4.51 20.745C4.37617 20.745 4.24484 20.7087 4.13 20.64C4.01498 20.5748 3.91926 20.4803 3.85252 20.3661C3.78579 20.252 3.75042 20.1222 3.75 19.99V4C3.75259 3.80189 3.83244 3.61263 3.97253 3.47253C4.11263 3.33244 4.30189 3.25259 4.5 3.25H19.5C19.6989 3.25 19.8897 3.32902 20.0303 3.46967C20.171 3.61032 20.25 3.80109 20.25 4V20C20.2517 20.1326 20.2172 20.2632 20.1503 20.3778C20.0833 20.4923 19.9864 20.5864 19.87 20.65C19.7471 20.7253 19.6038 20.7603 19.46 20.75ZM11.96 14.75C12.0975 14.7512 12.2322 14.7892 12.35 14.86L18.71 18.68V4.75H5.21V18.68L11.58 14.86C11.7063 14.7833 11.8523 14.745 12 14.75H11.96Z" fill="currentColor"/>
</svg>
