<svg width="24" height="24" viewBox="0 0 24 24" fill="none" xmlns="http://www.w3.org/2000/svg">
<path d="M5.14001 11.7899C5.1426 10.0101 5.84806 8.30329 7.10285 7.04101C8.35764 5.77872 10.0602 5.06312 11.84 5.04994L12.4 4.40994L11.67 3.55994C9.52822 3.62234 7.49497 4.51659 6.00148 6.05303C4.50798 7.58946 3.6717 9.64724 3.67001 11.7899C3.66492 12.8715 3.87542 13.9432 4.28921 14.9425C4.70301 15.9418 5.3118 16.8486 6.08002 17.6099C6.22064 17.7504 6.41126 17.8293 6.61001 17.8293C6.80877 17.8293 6.99939 17.7504 7.14001 17.6099C7.28046 17.4693 7.35935 17.2787 7.35935 17.0799C7.35935 16.8812 7.28046 16.6906 7.14001 16.5499C6.50795 15.9286 6.00565 15.1878 5.66231 14.3706C5.31898 13.5535 5.14144 12.6763 5.14001 11.7899Z" fill="currentColor"/>
<path d="M12.63 4.29994C12.63 4.49885 12.551 4.68962 12.4104 4.83027C12.2697 4.97092 12.0789 5.04994 11.88 5.04994L11.31 5.72994C11.2458 5.80387 11.1968 5.88982 11.166 5.98281C11.1352 6.0758 11.1232 6.17398 11.1306 6.27166C11.1381 6.36933 11.1648 6.46455 11.2094 6.5518C11.2539 6.63906 11.3153 6.7166 11.39 6.77994C11.521 6.89935 11.6929 6.96381 11.87 6.95994C11.9787 6.96385 12.0868 6.9424 12.1857 6.89727C12.2847 6.85214 12.3718 6.78457 12.44 6.69994L14 4.89994C14.121 4.76146 14.1877 4.58382 14.1877 4.39994C14.1877 4.21606 14.121 4.03842 14 3.89994L12.4 2.10994C12.3344 2.03574 12.2547 1.9752 12.1657 1.93178C12.0766 1.88836 11.9799 1.86291 11.881 1.85687C11.7821 1.85083 11.683 1.86434 11.5893 1.8966C11.4956 1.92887 11.4092 1.97928 11.335 2.04494C11.2608 2.1106 11.2003 2.19023 11.1569 2.27929C11.1135 2.36835 11.088 2.46508 11.082 2.56398C11.0759 2.66287 11.0894 2.76199 11.1217 2.85566C11.154 2.94934 11.2044 3.03574 11.27 3.10994L11.67 3.57994H11.88C12.0731 3.58221 12.2581 3.6579 12.3974 3.79163C12.5367 3.92536 12.6199 4.1071 12.63 4.29994Z" fill="currentColor"/>
<path d="M11.8399 5.04993C12.0388 5.04993 12.2296 4.97091 12.3702 4.83026C12.5109 4.68961 12.5899 4.49884 12.5899 4.29993C12.5899 4.10101 12.5109 3.91025 12.3702 3.7696C12.2296 3.62895 12.0388 3.54993 11.8399 3.54993H11.6299L12.3599 4.39993L11.8399 5.04993Z" fill="currentColor"/>
<path d="M19.75 11.6399C19.7529 10.5587 19.5414 9.48763 19.1277 8.48866C18.714 7.48968 18.1064 6.58262 17.34 5.81994C17.1978 5.68746 17.0098 5.61534 16.8155 5.61877C16.6212 5.6222 16.4358 5.70091 16.2984 5.83832C16.161 5.97574 16.0823 6.16112 16.0788 6.35542C16.0754 6.54972 16.1475 6.73777 16.28 6.87994C17.2185 7.82069 17.8579 9.01784 18.118 10.3209C18.3781 11.6241 18.2471 12.975 17.7417 14.2039C17.2362 15.4328 16.3788 16.4849 15.2771 17.2279C14.1755 17.9709 12.8788 18.3717 11.55 18.3799L11 18.9999L11.73 19.8499C13.871 19.7903 15.9049 18.9002 17.4016 17.3681C18.8983 15.8359 19.7404 13.7818 19.75 11.6399Z" fill="currentColor"/>
<path d="M10.7598 19.1299C10.7598 18.931 10.8388 18.7402 10.9795 18.5996C11.1201 18.4589 11.3109 18.3799 11.5098 18.3799L12.0798 17.6999C12.1441 17.626 12.193 17.54 12.2238 17.447C12.2546 17.354 12.2666 17.2558 12.2592 17.1582C12.2517 17.0605 12.225 16.9653 12.1804 16.878C12.1359 16.7908 12.0745 16.7132 11.9998 16.6499C11.925 16.5853 11.8383 16.5362 11.7445 16.5052C11.6506 16.4743 11.5517 16.4622 11.4532 16.4697C11.3547 16.4771 11.2586 16.5039 11.1705 16.5486C11.0824 16.5932 11.004 16.6548 10.9398 16.7299L9.38979 18.5299C9.26881 18.6684 9.20215 18.846 9.20215 19.0299C9.20215 19.2138 9.26881 19.3914 9.38979 19.5299L10.9998 21.3199C11.0709 21.4012 11.1585 21.4665 11.2567 21.5113C11.355 21.5562 11.4618 21.5795 11.5698 21.5799C11.7136 21.5803 11.8545 21.5394 11.9758 21.4619C12.097 21.3845 12.1934 21.2738 12.2534 21.1431C12.3135 21.0124 12.3347 20.8672 12.3146 20.7248C12.2944 20.5824 12.2338 20.4488 12.1398 20.3399L11.7398 19.8699H11.5298C11.3299 19.8726 11.137 19.7964 10.9929 19.6579C10.8488 19.5194 10.765 19.3297 10.7598 19.1299Z" fill="currentColor"/>
<path d="M11.5498 18.3799C11.3509 18.3799 11.1601 18.4589 11.0195 18.5996C10.8788 18.7402 10.7998 18.931 10.7998 19.1299C10.7998 19.3288 10.8788 19.5196 11.0195 19.6602C11.1601 19.8009 11.3509 19.8799 11.5498 19.8799H11.7598L10.9998 18.9999L11.5498 18.3799Z" fill="currentColor"/>
</svg>
